<svg xmlns="http://www.w3.org/2000/svg" width="30" height="30" viewBox="0 0 30 30">
    <path fill="#FFF" fill-rule="nonzero" d="M26.429 0H3.57A3.573 3.573 0 0 0 0 3.571V26.43C0 28.4 1.6 30 3.571 30H26.43C28.4 30 30 28.4 30 26.429V3.57C30 1.6 28.4 0 26.429 0zM9.286 11.429V25H5V11.429h4.286zM5 7.117C5 5.917 5.857 5 7.143 5c1.286 0 2.093.917 2.143 2.117 0 1.2-.8 2.169-2.143 2.169C5.857 9.286 5 8.317 5 7.117zM25 25h-4.286v-7.143c0-1.428-.714-2.857-2.5-2.886h-.057c-1.728 0-2.443 1.472-2.443 2.886V25H11.43V11.429h4.285v1.828s1.379-1.828 4.15-1.828c2.836 0 5.136 1.95 5.136 5.9V25z"/>
</svg>
