<svg xmlns="http://www.w3.org/2000/svg" width="30" height="30" viewBox="0 0 30 30">
    <path fill="#FFF" fill-rule="nonzero" d="M30 5.96c-1.12.51-2.312.845-3.534.993a6.297 6.297 0 0 0 2.706-3.49 12.122 12.122 0 0 1-3.91 1.529A6.067 6.067 0 0 0 20.768 3c-3.396 0-6.152 2.826-6.152 6.311 0 .495.053.975.159 1.438-5.116-.265-9.65-2.774-12.688-6.597a6.426 6.426 0 0 0-.832 3.176 6.354 6.354 0 0 0 2.737 5.253 6.043 6.043 0 0 1-2.789-.787v.077c0 3.059 2.122 5.61 4.94 6.188a5.869 5.869 0 0 1-1.622.223c-.396 0-.784-.038-1.159-.113.784 2.507 3.055 4.333 5.75 4.382A12.153 12.153 0 0 1 0 25.167 17.139 17.139 0 0 0 9.435 28c11.322 0 17.512-9.616 17.512-17.956 0-.275-.006-.549-.016-.818A12.632 12.632 0 0 0 30 5.96"/>
</svg>
