<svg xmlns="http://www.w3.org/2000/svg" width="50" height="50" viewBox="0 0 50 50">
    <g fill="none" fill-rule="evenodd" stroke="#B5B8C6">
        <rect width="48" height="48" x="1" y="1" stroke-width="2" opacity=".2" rx="24"/>
        <g stroke-width="2">
            <path d="M20 6C12.28 6 6 12.28 6 20c0 7.719 6.28 14 14 14 7.718 0 14-6.282 14-14 0-7.72-6.281-14-14-14z"/>
            <path d="M29.423 30.589c-3.07-1.28-6.055-2.753-6.344-3.677v-1.241c.821-.84 1.469-2.011 1.852-3.383a2.012 2.012 0 0 0 .388-2.917v-2.779c0-2.868-1.598-4.832-5.25-4.832-3.558 0-5.252 1.964-5.252 4.832v2.78a2.013 2.013 0 0 0 .388 2.916c.383 1.372 1.03 2.543 1.852 3.383v1.241c-.29.933-3.085 2.311-6.196 3.603"/>
        </g>
    </g>
</svg>
