<svg xmlns="http://www.w3.org/2000/svg" xmlns:xlink="http://www.w3.org/1999/xlink" width="183" height="45" viewBox="0 0 183 45">
    <defs>
        <linearGradient id="a" x1="31.622%" x2="92.521%" y1="71.126%" y2="9.869%">
            <stop offset="0%" stop-color="#00EAFF" stop-opacity="0"/>
            <stop offset="8%" stop-color="#00EAFF" stop-opacity=".04"/>
            <stop offset="23%" stop-color="#00EAFF" stop-opacity=".14"/>
            <stop offset="41%" stop-color="#00EAFF" stop-opacity=".3"/>
            <stop offset="62%" stop-color="#00EAFF" stop-opacity=".53"/>
            <stop offset="85%" stop-color="#00EAFF" stop-opacity=".81"/>
            <stop offset="100%" stop-color="#00EAFF"/>
        </linearGradient>
        <linearGradient id="b" x1="12.24%" x2="73.433%" y1="13.252%" y2="74.606%">
            <stop offset="0%" stop-color="#0083FF" stop-opacity=".1"/>
            <stop offset="9%" stop-color="#0083FF" stop-opacity=".14"/>
            <stop offset="24%" stop-color="#0083FF" stop-opacity=".24"/>
            <stop offset="44%" stop-color="#0083FF" stop-opacity=".4"/>
            <stop offset="67%" stop-color="#0083FF" stop-opacity=".63"/>
            <stop offset="92%" stop-color="#0083FF" stop-opacity=".91"/>
            <stop offset="100%" stop-color="#0083FF"/>
        </linearGradient>
        <linearGradient id="d" x1="50%" x2="50%" y1="100%" y2=".007%">
            <stop offset="0%" stop-color="#27C9EE" stop-opacity=".1"/>
            <stop offset="9%" stop-color="#25C6EF" stop-opacity=".14"/>
            <stop offset="24%" stop-color="#21BDF1" stop-opacity=".24"/>
            <stop offset="44%" stop-color="#1AAFF4" stop-opacity=".4"/>
            <stop offset="67%" stop-color="#109CF8" stop-opacity=".62"/>
            <stop offset="92%" stop-color="#0483FD" stop-opacity=".9"/>
            <stop offset="100%" stop-color="#007BFF"/>
        </linearGradient>
        <circle id="c" cx="29.999" cy="30.999" r="14.001"/>
        <circle id="e" cx="50.5" cy="9.501" r="3.5"/>
        <circle id="f" cx="7" cy="7" r="7"/>
    </defs>
    <g fill="none" fill-rule="evenodd">
        <g fill-rule="nonzero">
            <path fill="#1B2238" d="M24.527 18.11a14.007 14.007 0 0 1 18.81 17.154l9.626-23.282a3.5 3.5 0 1 1-4.91-4.987L24.526 18.11z"/>
            <path fill="url(#a)" d="M24.527 18.11a14.007 14.007 0 0 1 18.81 17.154l9.822-23.478A3.5 3.5 0 1 1 48.248 6.8l-23.721 11.31z"/>
            <path fill="#1B2238" d="M16 31a14.003 14.003 0 0 1 21.778-11.642L11.862 1.957a6.998 6.998 0 1 1-10.45 9.258L18.01 38.23A13.932 13.932 0 0 1 16 31z"/>
            <path fill="url(#b)" d="M16 31a14.003 14.003 0 0 1 21.778-11.642L11.862 1.957a6.998 6.998 0 1 1-10.45 9.258L18.01 38.23A13.932 13.932 0 0 1 16 31z"/>
            <use fill="#FFF" xlink:href="#c"/>
            <use fill="url(#d)" xlink:href="#c"/>
            <use fill="#FFF" xlink:href="#e"/>
            <use fill="url(#d)" xlink:href="#e"/>
            <g>
                <use fill="#FFF" xlink:href="#f"/>
                <use fill="url(#d)" xlink:href="#f"/>
            </g>
        </g>
        <path fill="#FFF" d="M65.834 26.607l-2.229 6.62h4.434l-2.205-6.62zm-3.068 9.307l-.959 2.758h-3.475l5.513-15.999h4.098l5.465 15.999h-3.595l-.911-2.758h-6.136zM79.164 30.78v-.191c0-.672-.6-1.152-1.414-1.152-.744 0-1.223.408-1.223 1.008 0 .288.12.576.312.72.335.263.36.263 1.893.743 2.493.768 3.476 1.751 3.476 3.55 0 2.159-1.726 3.598-4.315 3.598-2.636 0-4.242-1.343-4.362-3.646h2.924c.144.96.576 1.391 1.462 1.391.72 0 1.223-.432 1.223-1.055 0-.672-.432-.984-2.061-1.487-2.397-.72-3.476-1.8-3.476-3.55 0-2.11 1.702-3.526 4.29-3.526 2.541 0 4.075 1.343 4.147 3.597h-2.876zM88.669 30.78v-.191c0-.672-.6-1.152-1.414-1.152-.743 0-1.223.408-1.223 1.008 0 .288.12.576.312.72.335.263.36.263 1.893.743 2.493.768 3.476 1.751 3.476 3.55 0 2.159-1.726 3.598-4.315 3.598-2.636 0-4.242-1.343-4.362-3.646h2.924c.144.96.576 1.391 1.462 1.391.72 0 1.223-.432 1.223-1.055 0-.672-.432-.984-2.061-1.487-2.397-.72-3.476-1.8-3.476-3.55 0-2.11 1.702-3.526 4.29-3.526 2.541 0 4.075 1.343 4.147 3.597h-2.876zM101.172 32.1c-.264-1.463-1.318-2.35-2.829-2.35-1.461 0-2.444.839-2.731 2.35h5.56zm-5.56 1.75c.263 1.536 1.39 2.495 2.9 2.495 1.126 0 2.085-.551 2.564-1.439l2.805.768c-1.103 2.158-3.045 3.382-5.393 3.382-3.524 0-6.04-2.495-6.04-5.949 0-3.478 2.42-5.924 5.848-5.924 3.547 0 6.016 2.494 6.016 6.068l-.024.6h-8.676zM108.82 35.41c0 .527.191.672.862.72h.528v2.542h-2.421c-1.486-.048-2.037-.648-2.013-2.111v-6.476h-1.27v-2.566h1.27v-2.975h3.043v2.975h1.39v2.566h-1.39v5.325zM121.689 29.294h5.608v2.686h-5.608v4.006h5.608v2.686h-8.892V22.673h8.892v2.687h-5.608zM132.395 27.567v1.367c.814-1.271 1.63-1.751 3.02-1.751 1.054 0 2.06.384 2.732 1.031.72.72.983 1.607.983 3.43v7.028h-3.044v-6.884c0-.624-.072-.983-.264-1.295-.287-.456-.863-.744-1.462-.744-1.175 0-1.965.888-1.965 2.183v6.74h-3.045V27.567h3.045zM143.634 33.06c0 1.918 1.247 3.285 2.997 3.285.886 0 1.749-.383 2.3-1.031.36-.432.576-1.127.576-1.967 0-1.2-.264-2.015-.815-2.59-.552-.528-1.318-.864-2.086-.864-1.749 0-2.972 1.32-2.972 3.166zm5.92-5.493h2.996v10.29c0 2.278-.43 3.597-1.485 4.629-1.079 1.079-2.709 1.679-4.602 1.679-2.157 0-3.931-.72-5.441-2.207l1.893-1.919c.983 1.055 2.037 1.535 3.428 1.535 2.037 0 3.211-1.2 3.211-3.286v-1.127c-1.006 1.271-2.3 1.895-3.906 1.895-3.044 0-5.25-2.47-5.25-5.853 0-3.598 2.23-6.02 5.561-6.02 1.558 0 2.637.527 3.595 1.75v-1.366zM154.673 38.672h3.044V27.566h-3.044v11.106zm3.212-14.248c0 .936-.72 1.655-1.678 1.655-.983 0-1.702-.72-1.702-1.679 0-.983.72-1.703 1.702-1.703.983 0 1.678.72 1.678 1.727zM162.858 27.567v1.367c.814-1.271 1.63-1.751 3.02-1.751 1.054 0 2.06.384 2.732 1.031.72.72.983 1.607.983 3.43v7.028h-3.044v-6.884c0-.624-.072-.983-.264-1.295-.287-.456-.863-.744-1.462-.744-1.174 0-1.965.888-1.965 2.183v6.74h-3.044V27.567h3.044zM179.694 32.1c-.264-1.463-1.318-2.35-2.828-2.35-1.462 0-2.445.839-2.733 2.35h5.561zm-5.56 1.75c.263 1.536 1.39 2.495 2.9 2.495 1.126 0 2.085-.551 2.564-1.439l2.805.768c-1.103 2.158-3.045 3.382-5.393 3.382-3.524 0-6.04-2.495-6.04-5.949 0-3.478 2.42-5.924 5.848-5.924 3.547 0 6.016 2.494 6.016 6.068l-.024.6h-8.677z"/>
    </g>
</svg>
